<?xml version="1.0" encoding="UTF-8"?>
<svg xmlns="http://www.w3.org/2000/svg" xmlns:xlink="http://www.w3.org/1999/xlink" viewBox="0 0 549.65 107.77">
  <defs>
    <style>
      .cls-1 {
        fill: #2e56ff;
      }

      .cls-2 {
        fill: url(#_무제_그라디언트_183);
      }
    </style>
    <linearGradient id="_무제_그라디언트_183" data-name="무제 그라디언트 183" x1="0" y1="43.95" x2="192.48" y2="43.95" gradientUnits="userSpaceOnUse">
      <stop offset="0" stop-color="#ff7fe6"/>
      <stop offset=".33" stop-color="#977dff"/>
      <stop offset=".66" stop-color="#2e56ff"/>
      <stop offset="1" stop-color="#0624ed"/>
    </linearGradient>
  </defs>
  <g id="_레이어_1" data-name="레이어 1">
    <g>
      <path d="M282.01,52.57c0-16.42,12.86-29.28,29.09-29.28s29.09,12.86,29.09,29.28-12.96,29.18-29.09,29.18-29.09-13.06-29.09-29.18ZM327.41,52.57c0-9.5-7.1-17.09-16.32-17.09s-16.32,7.58-16.32,17.09,7.01,16.99,16.32,16.99,16.32-7.68,16.32-16.99Z"/>
      <path d="M345.85,24.45h12.86v6.91c3.74-4.9,9.5-8.06,16.8-8.06,14.11,0,22.27,8.74,22.27,24v33.31h-13.15v-31.97c0-8.74-4.22-14.11-12.67-14.11-7.39,0-13.15,5.38-13.15,15.26v30.81h-12.96V24.45Z"/>
      <path d="M449.43,73.11c-4.13,5.38-10.75,8.64-18.33,8.64-13.53,0-27.65-10.75-27.65-29.18s13.63-29.28,27.84-29.28c7.39,0,13.92,3.26,18.05,8.35v-7.2h12.96v54.72c0,15.74-10.08,28.61-28.99,28.61-14.59,0-23.71-6.82-28.8-16.13l11.52-7.01c4.13,7.58,8.54,11.23,17.47,11.23,9.79,0,15.93-7.68,15.93-16.22v-6.53ZM450,52.38c0-9.6-7.1-17.28-16.8-17.28s-16.99,7.58-16.99,17.28,7.39,17.47,16.99,17.47,16.8-7.78,16.8-17.47Z"/>
      <path d="M492.53,10.53h13.15l24.96,70.07h-13.63l-4.32-12.48h-27.17l-4.32,12.48h-13.63l24.96-70.07ZM489.94,55.64h18.43l-9.22-26.59-9.21,26.59Z"/>
      <path d="M536.6,10.53h13.05v70.07h-13.05V10.53Z"/>
    </g>
    <g>
      <path d="M206.54,68.6l31.01-45.6h-29.95v-12.48h45.31v11.9l-31.01,45.69h31.01v12.48h-46.36v-12Z"/>
      <path d="M234.15,68.79l32.64-46.83h-31.97v-11.52h48.86v11.81l-32.64,46.83h33.21v11.52h-50.11v-11.81Z"/>
    </g>
    <circle class="cls-1" cx="336.33" cy="23.33" r="6"/>
  </g>
  <g id="_레이어_2" data-name="레이어 2">
    <path class="cls-2" d="M35.06,26.88c-.14.04-.28.13-.42.27-2.03,2.15-2.47,5.14-3.57,7.77-4.39,10.54-9.29,20.89-14.3,31.15-1.52,3.11-3.04,6.22-4.88,9.16-1.13,1.81-2.29,3.72-3.81,5.27-1.37,1.39-3.49,3.07-5.59,2.52-2.69-.7-2.56-4.13-2.44-6.33.3-5.54,1.78-11.03,3.34-16.33,3.18-10.84,7.29-21.35,11.72-31.72,3.26-7.63,7.12-15.22,11.77-22.16.93-1.4,2.13-3,3.87-3.36,1.84-.38,3.73.81,4.74,2.39,1.36,2.13,1.2,4.82,2.43,6.99.95,1.67,3.68-2.26,4.3-2.94,1.12-1.21,2.17-2.63,3.44-3.7,3.74-3.17,7.68-2.84,11.15.56,2.65,2.6,4.9,5.53,6.69,8.78,1.82,3.3,3.63,6.62,5.26,10.01,4.89,10.2,9.06,20.73,13.66,31.06.85,1.9,1.7,3.79,2.56,5.68.47,1.03,1.4,3.9,2.85,2.47,1.09-1.07,1.99-2.48,2.95-3.67,1.12-1.39,2.23-2.78,3.33-4.18,2.34-2.98,4.64-5.98,6.92-9.01,2.34-3.11,4.62-6.27,6.97-9.38,1.99-2.63,4-5.25,6.07-7.83,2.69-3.36,5.39-6.71,8.19-9.98,4.37-5.09,9.11-9.81,14.53-13.79,3.38-2.49,7.09-4.41,11.1-5.6,4.11-1.22,8.32-1.5,12.47,0,.92.33,1.86.72,2.66,1.28,1.57,1.11,3.28,1.32,5.12,1.15,3.35-.31,6.55.24,9.38,2.08,2.57,1.68,4.58,3.98,6.39,6.46,2.33,3.21,4.01,6.76,5.13,10.51,1.45,4.87,2.54,9.84,2.83,14.94.2,3.58.71,7.17.59,10.74-.14,4.45-.58,8.92-1.28,13.32-.65,4.08-1.61,8.13-2.82,12.08-1.34,4.4-3.58,8.38-7.17,11.43-3.66,3.11-9.5,3.84-13.24,1.48-2.4-1.51-3.58-3.84-4.47-6.39-1.07-3.07-1.47-6.26-1.55-9.49-.13-5.39-.26-10.78-.34-16.17-.09-5.81-.14-11.62-.23-17.44-.06-4.01.02-8.03-.38-12.02-.15-1.51-1.16-11.92-4.39-9.76-1.78,1.19-2.92,3.11-4.28,4.7-3.63,4.27-7.08,8.69-10.47,13.16-2.16,2.85-4.31,5.72-6.46,8.58-1.59,2.1-3.17,4.21-4.76,6.31-1.85,2.45-3.71,4.9-5.59,7.33-1.73,2.24-3.47,4.46-5.22,6.67-1.91,2.4-3.84,4.78-5.82,7.13s-4.1,4.77-6.24,7.08c-.19.21-.38.41-.57.62-2.51,2.69-5.47,5.92-9.39,6.21-2.39.18-4.5-1.52-5.9-3.29-.91-1.15-3.18-6.65-5.2-4.63-1.73,1.73-3.85,2.99-5.83,4.38-5.3,3.71-11.29,6.78-17.96,5.45-4.3-.85-7.71-3.55-10.43-6.88-3.23-3.94-5.38-8.48-7.14-13.19-1.37-3.69-2.53-7.47-3.51-11.29-1.91-7.42-3.72-14.93-5.14-22.47-.25-1.32-.34-2.76-1.03-3.95-.16-.27-.37-.36-.58-.31ZM67.67,79.58c.88-.25,2.17-.49,3.36-.98,4.84-1.97,8.51-5.54,12.14-9.14,1.09-1.08,1.42-2.4.69-3.93-1.35-2.85-2.59-5.75-3.89-8.62-1.87-4.11-3.76-8.22-5.62-12.33-1.87-4.15-3.61-8.37-5.6-12.46-3.11-6.37-6.33-12.69-10.39-18.53-1.45-2.09-2.77-4.32-5.06-5.7-2-1.21-4.1-1.85-5.91.15-1.59,1.76-3.26,3.59-4.74,5.49s-2.88,3.83-3.03,6.33c-.15,2.45.87,4.77,1.46,7.09s.97,4.91,1.58,7.34c1.4,5.6,2.91,11.16,4.44,16.73,1.36,4.96,3.2,9.75,5.33,14.43,1.87,4.11,4.23,7.9,7.63,10.95,2.04,1.83,4.44,2.89,7.61,3.17ZM90.71,72.67c-.03.27-.02.55.03.83.22,1.23,1.13,2.6,1.82,3.63,1.41,2.11,3.69,4.35,6.47,3.76,2.46-.52,4.4-2.6,6.05-4.35,2.58-2.72,4.98-5.56,7.39-8.42,3.4-4.04,6.9-7.98,10.22-12.09.03-.04.06-.08.09-.12,2.1-2.6,4.15-5.24,6.12-7.94,2.79-3.82,5.54-7.68,8.39-11.46,3.5-4.64,7.04-9.25,10.72-13.74,1.3-1.59,2.61-3.18,3.93-4.76,1.42-1.72,3.17-3.47,3.64-5.73.62-2.88-3.86-2.3-5.47-2.04-3.92.65-7.64,3.14-10.56,5.72-3.5,3.09-6.91,6.32-10.16,9.68-7.03,7.26-13.25,15.22-19.55,23.1-3.35,4.19-6.85,8.25-10.3,12.35-2.4,2.85-4.81,5.7-7.2,8.56-.71.85-1.49,1.88-1.62,3.03ZM33.96,17.28c-.5-1.94-1.24-4.64-1.86-7.38-.17-.74-.38-1.45-1.1-1.39-.56.05-1.25.58-1.57,1.1-.96,1.49-1.8,3.07-2.62,4.64-2.22,4.27-4.47,8.54-6.6,12.86-1.45,2.95-2.79,5.96-4.04,9-1.36,3.3-2.61,6.65-3.81,10.02-1.42,3.96-2.79,7.94-4.07,11.94-.94,2.91-1.8,5.86-2.53,8.83-.86,3.51-1.56,7.07-2.31,10.61-.17.78.03,1.61.83,1.72.53.08,1.38-.33,1.69-.78,1.71-2.52,3.43-5.06,4.88-7.73,1.73-3.18,3.23-6.48,4.75-9.77,2.62-5.65,5.11-11.35,7.77-16.98,2.52-5.34,5.18-10.62,7.8-15.91,1.55-3.14,2.47-6.44,2.79-10.79ZM175.96,72.19c.09.15.21.19.36,0,.44-.59.56-1.57.8-2.27.28-.8.54-1.6.75-2.42,1-3.97,1.98-7.95,2.8-11.96.7-3.47,1.38-6.97,1.69-10.5.63-7.12.79-14.26-.27-21.38-.55-3.71-1.54-7.25-3.48-10.5-1.93-3.23-4.46-5.74-8.23-6.67-.52-.13-1.22.1-1.7.39-.16.09-.04.98.18,1.36,3.02,5.05,4.06,10.72,4.85,16.4,1.05,7.65.94,15.38.96,23.08.01,4.43-.07,8.87.04,13.3.07,2.9.38,5.79.64,8.68.05.54.19,1.06.34,1.58.04.13.12.66.28.9Z"/>
  </g>
</svg>