<svg width="36" height="36" viewBox="0 0 36 36" fill="none" xmlns="http://www.w3.org/2000/svg">
<path d="M32.8246 17.4371C32.7667 16.3337 32.6121 15.2778 32.3748 14.2688L17.7183 15.037L18.0341 21.0637L26.4093 20.6248C26.143 22.5822 25.1255 24.2811 23.5282 25.4714L23.7335 29.3901L28.7841 29.1255C31.5844 26.255 33.073 22.1765 32.8246 17.4371Z" fill="#4285F4"/>
<path d="M18.6819 33.4284C22.8836 33.2082 26.3336 31.6371 28.7838 29.1255L23.5279 25.4714C22.1904 26.4777 20.4517 27.1363 18.3579 27.246C14.3117 27.4581 10.7309 24.9078 9.30729 21.2941L4.12939 21.5654L4.33996 25.5832C7.16678 30.5279 12.5985 33.7472 18.6819 33.4284Z" fill="#34A853"/>
<path d="M9.30672 21.2799C8.94654 20.3625 8.71073 19.3818 8.6566 18.3491C8.60248 17.3163 8.73449 16.3164 8.9968 15.3664L8.78623 11.3485L3.60834 11.6199C2.65703 13.7693 2.17251 16.1638 2.30449 18.682C2.43646 21.2002 3.16861 23.5309 4.33939 25.5691L8.20676 22.2171L9.30672 21.2799Z" fill="#FBBC05"/>
<path d="M17.3755 8.50094C19.6674 8.38082 21.7461 9.06631 23.4531 10.5089L27.676 5.81901C24.8419 3.44241 21.2525 2.08424 17.0508 2.30444C10.9675 2.62325 5.90199 6.39269 3.60825 11.6199L8.99671 15.3664C10.0347 11.6236 13.3294 8.71298 17.3755 8.50094Z" fill="#EA4335"/>
</svg>
