<svg width="233" height="43" viewBox="0 0 233 43" fill="none" xmlns="http://www.w3.org/2000/svg">
<path d="M124.546 21.1485C124.546 14.8965 129.498 10 135.746 10C141.995 10 146.946 14.8965 146.946 21.1485C146.946 27.4004 141.957 32.2588 135.746 32.2588C129.536 32.2588 124.546 27.2862 124.546 21.1485ZM142.026 21.1485C142.026 17.5313 139.292 14.6414 135.742 14.6414C132.193 14.6414 129.459 17.5275 129.459 21.1485C129.459 24.7694 132.158 27.6174 135.742 27.6174C139.327 27.6174 142.026 24.6933 142.026 21.1485Z" fill="#121212"/>
<path d="M150.637 9.45857H155.822V12.214C157.33 10.2601 159.653 9 162.597 9C168.286 9 171.576 12.4851 171.576 18.5702V31.8528H166.274V19.1045C166.274 15.6194 164.572 13.4781 161.165 13.4781C158.185 13.4781 155.863 15.6234 155.863 19.5631V31.8488H150.637V9.45857Z" fill="#121212"/>
<path d="M192.899 29.1299C191.211 31.2829 188.506 32.5874 185.409 32.5874C179.881 32.5874 174.111 28.2855 174.111 20.9103C174.111 13.5351 179.681 9.19316 185.487 9.19316C188.506 9.19316 191.175 10.4977 192.862 12.5346V9.65336H198.158V31.551C198.158 37.8497 194.039 43 186.312 43C180.351 43 176.624 40.2708 174.544 36.5452L179.252 33.7399C180.939 36.7733 182.741 38.2339 186.39 38.2339C190.39 38.2339 192.899 35.1606 192.899 31.7431V29.1299ZM193.132 20.8343C193.132 16.9926 190.231 13.9192 186.267 13.9192C182.304 13.9192 179.325 16.9526 179.325 20.8343C179.325 24.716 182.345 27.8253 186.267 27.8253C190.19 27.8253 193.132 24.712 193.132 20.8343Z" fill="#121212"/>
<path d="M210.22 3.88066L215.54 3.88066L225.639 31.892L220.124 31.892L218.377 26.903L207.383 26.903L205.635 31.892L200.121 31.892L210.22 3.88066ZM209.172 21.914L216.629 21.914L212.898 11.2843L209.172 21.914Z" fill="#121212"/>
<path d="M227.602 3.88066H233V31.892H227.602V3.88066Z" fill="#121212"/>
<path d="M93.6295 27.0989L106.429 8.8697H94.067V3.88066H112.768V8.63784L99.9692 26.903H112.768V31.892H93.6336V27.0949L93.6295 27.0989Z" fill="#121212"/>
<path d="M105.411 27.1769L117.878 8.48002H105.667V3.88066H124.329V8.5958L111.862 27.2927H124.546V31.892H105.407V27.1769H105.411Z" fill="#121212"/>
<path d="M145.865 7.89618C147.334 7.89618 148.525 6.70511 148.525 5.23584C148.525 3.76658 147.334 2.5755 145.865 2.5755C144.395 2.5755 143.204 3.76658 143.204 5.23584C143.204 6.70511 144.395 7.89618 145.865 7.89618Z" fill="#4E62FF"/>
<path d="M14.3682 10.7378C14.3108 10.7538 14.2534 10.7897 14.196 10.8455C13.3641 11.703 13.1838 12.8956 12.733 13.9445C10.934 18.1483 8.92591 22.2763 6.87277 26.3684C6.24986 27.6088 5.62695 28.8492 4.87291 30.0217C4.40983 30.7436 3.93445 31.5054 3.31154 32.1236C2.7501 32.678 1.88131 33.3481 1.02071 33.1287C-0.0816687 32.8495 -0.0283936 31.4815 0.0207833 30.6041C0.143726 28.3945 0.750241 26.2048 1.38954 24.091C2.69273 19.7676 4.37704 15.5758 6.19249 11.4398C7.52846 8.39665 9.11032 5.36946 11.0159 2.60151C11.397 2.04313 11.8888 1.40499 12.6019 1.26141C13.3559 1.10985 14.1305 1.58447 14.5444 2.21463C15.1017 3.06416 15.0361 4.13704 15.5402 5.00252C15.9295 5.66859 17.0483 4.10115 17.3024 3.82993C17.7614 3.34734 18.1917 2.78099 18.7121 2.35423C20.2448 1.0899 21.8594 1.22152 23.2815 2.57758C24.3675 3.61456 25.2895 4.78316 26.0231 6.07939C26.7689 7.39556 27.5107 8.71971 28.1787 10.0718C30.1826 14.1399 31.8915 18.3397 33.7767 22.4597C34.125 23.2175 34.4733 23.9713 34.8258 24.7252C35.0184 25.136 35.3995 26.2806 35.9937 25.7103C36.4404 25.2835 36.8092 24.7212 37.2026 24.2465C37.6616 23.6922 38.1165 23.1378 38.5673 22.5794C39.5263 21.3909 40.4688 20.1943 41.4032 18.9858C42.3621 17.7455 43.2965 16.4851 44.2595 15.2447C45.0751 14.1958 45.8988 13.1508 46.7471 12.1218C47.8495 10.7817 48.9559 9.4456 50.1034 8.14139C51.8943 6.1113 53.8367 4.22877 56.0579 2.64139C57.4431 1.64828 58.9634 0.882508 60.6068 0.407889C62.2911 -0.0786959 64.0164 -0.190371 65.7171 0.407889C66.0941 0.539506 66.4793 0.695053 66.8072 0.918404C67.4506 1.36112 68.1513 1.44487 68.9054 1.37707C70.2782 1.25343 71.5896 1.47279 72.7494 2.20666C73.8026 2.87671 74.6263 3.79404 75.3681 4.78316C76.3229 6.06344 77.0114 7.47932 77.4704 8.97497C78.0646 10.9173 78.5113 12.8996 78.6301 14.9336C78.7121 16.3615 78.9211 17.7933 78.8719 19.2172C78.8145 20.992 78.6342 22.7748 78.3474 24.5297C78.081 26.157 77.6876 27.7723 77.1917 29.3477C76.6426 31.1026 75.7246 32.69 74.2534 33.9064C72.7535 35.1468 70.3602 35.438 68.8275 34.4967C67.844 33.8945 67.3604 32.9652 66.9957 31.9481C66.5572 30.7237 66.3933 29.4514 66.3605 28.1632C66.3072 26.0134 66.2539 23.8637 66.2211 21.7139C66.1843 19.3967 66.1638 17.0794 66.1269 14.7581C66.1023 13.1588 66.1351 11.5555 65.9712 9.96409C65.9097 9.36184 65.4958 5.20992 64.1721 6.07141C63.4426 6.54603 62.9755 7.31181 62.4181 7.94596C60.9305 9.64901 59.5167 11.4119 58.1274 13.1947C57.2423 14.3314 56.3612 15.4761 55.4801 16.6167C54.8285 17.4543 54.181 18.2959 53.5294 19.1334C52.7712 20.1106 52.009 21.0877 51.2386 22.0569C50.5296 22.9503 49.8165 23.8357 49.0994 24.7172C48.3166 25.6744 47.5257 26.6236 46.7143 27.5609C45.9029 28.4982 45.0341 29.4634 44.1571 30.3847C44.0792 30.4684 44.0014 30.5482 43.9235 30.632C42.8949 31.7049 41.6818 32.9931 40.0754 33.1088C39.096 33.1806 38.2313 32.5025 37.6575 31.7966C37.2846 31.3379 36.3543 29.1443 35.5265 29.95C34.8176 30.6399 33.9488 31.1425 33.1374 31.6969C30.9654 33.1766 28.5106 34.401 25.7772 33.8705C24.015 33.5315 22.6176 32.4547 21.5029 31.1265C20.1792 29.5551 19.2981 27.7444 18.5769 25.8658C18.0154 24.3941 17.5401 22.8865 17.1385 21.3629C16.3557 18.4035 15.614 15.4083 15.032 12.401C14.9296 11.8745 14.8927 11.3002 14.6099 10.8256C14.5444 10.7179 14.4583 10.682 14.3723 10.7019L14.3682 10.7378ZM27.732 31.7567C28.0926 31.657 28.6213 31.5613 29.1089 31.3658C31.0924 30.5801 32.5964 29.1563 34.084 27.7204C34.5307 27.2897 34.6659 26.7632 34.3668 26.153C33.8135 25.0163 33.3054 23.8597 32.7726 22.715C32.0063 21.0758 31.2317 19.4365 30.4695 17.7973C29.7032 16.1421 28.9901 14.459 28.1746 12.8278C26.9001 10.2872 25.5805 7.76648 23.9167 5.43726C23.3225 4.60368 22.7815 3.71427 21.843 3.16387C21.0234 2.68128 20.1628 2.42602 19.4211 3.2237C18.7695 3.92566 18.0851 4.65553 17.4786 5.41333C16.8721 6.17112 16.2983 6.94089 16.2369 7.93799C16.1754 8.91514 16.5934 9.84045 16.8352 10.7658C17.077 11.6911 17.2327 12.7241 17.4827 13.6932C18.0564 15.9267 18.6752 18.1443 19.3022 20.3658C19.8596 22.3441 20.6136 24.2545 21.4865 26.1211C22.2529 27.7603 23.22 29.2719 24.6134 30.4884C25.4494 31.2183 26.4329 31.641 27.732 31.7527V31.7567ZM37.174 29.0007C37.1617 29.1084 37.1658 29.2201 37.1863 29.3318C37.2764 29.8223 37.6493 30.3687 37.9321 30.7795C38.5099 31.6211 39.4443 32.5145 40.5836 32.2792C41.5917 32.0718 42.3867 31.2422 43.0629 30.5442C44.1202 29.4594 45.1037 28.3267 46.0914 27.186C47.4847 25.5747 48.9191 24.0033 50.2796 22.364C50.2919 22.3481 50.3042 22.3321 50.3165 22.3162C51.1771 21.2792 52.0172 20.2262 52.8245 19.1494C53.9679 17.6258 55.0949 16.0863 56.2628 14.5787C57.6971 12.728 59.1479 10.8894 60.6559 9.09861C61.1887 8.46445 61.7256 7.8303 62.2665 7.20013C62.8484 6.51413 63.5656 5.81616 63.7582 4.91478C64.0123 3.76612 62.1763 3.99745 61.5165 4.10115C59.9101 4.36039 58.3856 5.3535 57.189 6.38251C55.7547 7.61492 54.3572 8.90318 53.0253 10.2433C50.1444 13.1389 47.5954 16.3136 45.0136 19.4565C43.6407 21.1276 42.2064 22.7469 40.7926 24.3822C39.809 25.5188 38.8214 26.6555 37.8419 27.7962C37.551 28.1352 37.2313 28.546 37.1781 29.0047L37.174 29.0007ZM13.9174 6.90898C13.7125 6.13523 13.4092 5.05836 13.1551 3.96554C13.0855 3.6704 12.9994 3.38722 12.7043 3.41115C12.4748 3.43109 12.1921 3.64248 12.0609 3.84988C11.6675 4.44415 11.3233 5.07431 10.9872 5.70049C10.0775 7.40354 9.1554 9.10659 8.28251 10.8296C7.68829 12.0062 7.13915 13.2067 6.62689 14.4191C6.06955 15.7353 5.55729 17.0714 5.06552 18.4155C4.48359 19.9949 3.92215 21.5823 3.3976 23.1777C3.01238 24.3383 2.65995 25.5149 2.36079 26.6994C2.00835 28.0993 1.72149 29.5192 1.41413 30.9311C1.34446 31.2422 1.42642 31.5732 1.75427 31.6171C1.97147 31.649 2.31981 31.4855 2.44685 31.306C3.14762 30.3009 3.85249 29.2879 4.44671 28.223C5.15568 26.9547 5.77039 25.6385 6.3933 24.3263C7.46699 22.0729 8.48741 19.7995 9.5775 17.554C10.6102 15.4242 11.7003 13.3183 12.774 11.2085C13.4092 9.95611 13.7862 8.63994 13.9174 6.90499V6.90898ZM72.1101 28.8093C72.147 28.8691 72.1961 28.8851 72.2576 28.8093C72.4379 28.574 72.4871 28.1831 72.5855 27.9039C72.7002 27.5848 72.8068 27.2658 72.8928 26.9387C73.3026 25.3553 73.7042 23.7679 74.0403 22.1686C74.3271 20.7846 74.6058 19.3887 74.7329 17.9808C74.991 15.141 75.0566 12.2933 74.6222 9.45358C74.3968 7.97388 73.9911 6.56199 73.1961 5.26576C72.4051 3.97751 71.3683 2.97642 69.8234 2.6055C69.6103 2.55365 69.3234 2.64538 69.1267 2.76104C69.0611 2.79694 69.1103 3.15191 69.2004 3.30347C70.4381 5.31761 70.8643 7.57903 71.188 9.84444C71.6183 12.8956 71.5732 15.9786 71.5814 19.0497C71.5855 20.8165 71.5527 22.5874 71.5978 24.3542C71.6265 25.5109 71.7535 26.6635 71.8601 27.8162C71.8806 28.0315 71.938 28.2389 71.9994 28.4463C72.0158 28.4982 72.0486 28.7096 72.1142 28.8053L72.1101 28.8093Z" fill="url(#paint0_linear_163_49)"/>
<defs>
<linearGradient id="paint0_linear_163_49" x1="0.000292946" y1="17.546" x2="78.8801" y2="17.546" gradientUnits="userSpaceOnUse">
<stop stop-color="#FF7FE6"/>
<stop offset="0.33" stop-color="#977DFF"/>
<stop offset="0.66" stop-color="#2E56FF"/>
<stop offset="1" stop-color="#0624ED"/>
</linearGradient>
</defs>
</svg>
