<svg width="1188" height="528" viewBox="0 0 1188 528" fill="none" xmlns="http://www.w3.org/2000/svg">
<path opacity="0.1" d="M216.399 161.744C215.534 161.984 214.67 162.525 213.806 163.366C201.277 176.283 198.561 194.246 191.772 210.046C164.676 273.367 134.433 335.547 103.511 397.186C94.1291 415.87 84.7475 434.555 73.3908 452.217C66.4163 463.091 59.2567 474.566 49.8751 483.878C41.4193 492.229 28.3344 502.322 15.373 499.017C-1.23001 494.812 -0.427635 474.205 0.313018 460.988C2.16465 427.706 11.2994 394.723 20.9279 362.882C40.5552 297.759 65.9225 234.618 93.265 172.318C113.386 126.479 137.21 80.88 165.911 39.1865C171.651 30.7757 179.057 21.1633 189.797 19.0005C201.153 16.7176 212.819 23.8668 219.053 33.359C227.447 46.1554 226.459 62.3162 234.051 75.353C239.914 85.3858 256.764 61.7755 260.591 57.6903C267.504 50.4209 273.984 41.89 281.823 35.4617C304.907 16.4172 329.225 18.3998 350.642 38.826C366.998 54.4461 380.885 72.0487 391.933 91.5738C403.167 111.399 414.338 131.345 424.399 151.711C454.58 212.99 480.318 276.251 508.71 338.311C513.956 349.725 519.202 361.08 524.51 372.435C527.411 378.623 533.151 395.865 542.101 387.274C548.828 380.845 554.383 372.375 560.308 365.225C567.221 356.875 574.072 348.524 580.862 340.113C595.304 322.21 609.5 304.187 623.573 285.984C638.015 267.3 652.088 248.315 666.592 229.631C678.875 213.831 691.281 198.091 704.057 182.591C720.66 162.405 737.325 142.279 754.607 122.634C781.579 92.0544 810.834 63.698 844.287 39.7873C865.149 24.828 888.047 13.2932 912.798 6.14402C938.165 -1.18539 964.15 -2.86756 989.764 6.14402C995.442 8.12657 1001.24 10.4696 1006.18 13.8339C1015.87 20.5025 1026.43 21.7641 1037.78 20.7428C1058.46 18.8804 1078.21 22.1846 1095.68 33.2388C1111.54 43.3318 1123.95 57.1496 1135.12 72.0487C1149.5 91.3335 1159.87 112.661 1166.78 135.19C1175.73 164.447 1182.46 194.306 1184.25 224.945C1185.48 246.453 1188.63 268.02 1187.89 289.468C1187.02 316.202 1184.31 343.057 1179.99 369.491C1175.98 394.002 1170.05 418.334 1162.58 442.064C1154.31 468.498 1140.49 492.409 1118.33 510.732C1095.74 529.416 1059.69 533.802 1036.61 519.624C1021.8 510.552 1014.51 496.554 1009.02 481.234C1002.42 462.791 999.948 443.626 999.454 424.221C998.652 391.84 997.849 359.458 997.355 327.076C996.8 292.172 996.491 257.267 995.936 222.302C995.566 198.211 996.059 174.06 993.59 150.089C992.665 141.017 986.431 78.477 966.495 91.4536C955.509 98.6028 948.472 110.138 940.078 119.69C917.674 145.343 896.38 171.897 875.456 198.752C862.125 215.874 848.855 233.116 835.585 250.298C825.771 262.914 816.019 275.59 806.205 288.206C794.787 302.925 783.307 317.644 771.703 332.243C761.025 345.7 750.286 359.037 739.485 372.315C727.696 386.733 715.784 401.031 703.563 415.15C691.342 429.268 678.258 443.806 665.049 457.684C663.876 458.946 662.704 460.147 661.531 461.409C646.039 477.57 627.77 496.975 603.575 498.717C588.824 499.798 575.8 489.585 567.16 478.952C561.543 472.043 547.532 439 535.065 451.136C524.387 461.529 511.302 469.099 499.081 477.45C466.369 499.738 429.398 518.182 388.23 510.192C361.69 505.085 340.643 488.864 323.855 468.859C303.919 445.188 290.649 417.913 279.786 389.617C271.33 367.448 264.171 344.739 258.122 321.79C246.333 277.212 235.162 232.094 226.397 186.796C224.854 178.866 224.299 170.215 220.04 163.066C219.053 161.444 217.756 160.903 216.46 161.203L216.399 161.744ZM417.671 478.351C423.102 476.849 431.065 475.407 438.409 472.463C468.282 460.628 490.934 439.18 513.339 417.553C520.066 411.064 522.103 403.134 517.598 393.942C509.265 376.82 501.612 359.398 493.588 342.156C482.046 317.464 470.381 292.772 458.901 268.081C447.359 243.149 436.619 217.796 424.337 193.224C405.142 154.955 385.267 116.986 360.209 81.9014C351.259 69.3452 343.112 55.948 328.978 47.6574C316.634 40.388 303.672 36.5431 292.501 48.5585C282.687 59.1321 272.38 70.1262 263.245 81.5409C254.11 92.9556 245.469 104.55 244.543 119.57C243.618 134.289 249.913 148.227 253.555 162.164C257.196 176.102 259.542 191.662 263.307 206.261C271.948 239.904 281.267 273.307 290.711 306.77C299.105 336.569 310.461 365.346 323.608 393.462C335.15 418.153 349.716 440.923 370.701 459.246C383.292 470.24 398.105 476.609 417.671 478.291V478.351ZM559.876 436.837C559.691 438.459 559.753 440.142 560.062 441.824C561.419 449.213 567.036 457.444 571.295 463.632C579.998 476.308 594.07 489.765 611.228 486.221C626.412 483.097 638.386 470.601 648.57 460.087C664.494 443.746 679.307 426.684 694.182 409.502C715.167 385.231 736.769 361.561 757.26 336.869C757.446 336.629 757.631 336.388 757.816 336.148C770.777 320.528 783.43 304.668 795.589 288.447C812.809 265.497 829.783 242.307 847.373 219.598C868.976 191.722 890.825 164.027 913.538 137.052C921.562 127.5 929.648 117.948 937.795 108.455C946.559 98.1222 957.36 87.6087 960.261 74.0312C964.088 56.729 936.437 60.2135 926.5 61.7755C902.305 65.6805 879.345 80.6397 861.322 96.1397C839.72 114.704 818.673 134.108 798.614 154.294C755.224 197.91 716.833 245.732 677.949 293.073C657.272 318.245 635.67 342.636 614.376 367.268C599.563 384.39 584.688 401.512 569.937 418.694C565.555 423.801 560.741 429.989 559.938 436.897L559.876 436.837ZM209.609 104.07C206.523 92.4149 201.956 76.194 198.129 59.7329C197.08 55.2872 195.784 51.0217 191.34 51.3822C187.883 51.6825 183.625 54.8666 181.65 57.9906C175.724 66.9421 170.54 76.4343 165.479 85.8665C151.777 111.519 137.889 137.172 124.743 163.126C115.793 180.849 107.523 198.932 99.8074 217.195C91.4134 237.021 83.6982 257.147 76.2917 277.393C67.5273 301.183 59.0715 325.094 51.1712 349.125C45.3694 366.607 40.0614 384.33 35.5558 402.173C30.2477 423.26 25.9273 444.647 21.2982 465.915C20.2489 470.601 21.4834 475.587 26.421 476.248C29.6923 476.729 34.9385 474.265 36.8519 471.562C47.4062 456.423 58.0222 441.163 66.9718 425.122C77.6495 406.018 86.9077 386.192 96.2893 366.427C112.46 332.483 127.829 298.239 144.247 264.416C159.8 232.335 176.218 200.614 192.389 168.833C201.956 149.969 207.634 130.143 209.609 104.01V104.07ZM1086.05 433.954C1086.6 434.855 1087.34 435.095 1088.27 433.954C1090.99 430.409 1091.73 424.522 1093.21 420.316C1094.94 415.51 1096.54 410.704 1097.84 405.777C1104.01 381.927 1110.06 358.016 1115.12 333.925C1119.44 313.078 1123.64 292.051 1125.55 270.844C1129.44 228.069 1130.43 185.174 1123.88 142.399C1120.49 120.11 1114.38 98.8431 1102.4 79.318C1090.49 59.9131 1074.88 44.8337 1051.61 39.2466C1048.4 38.4656 1044.08 39.8473 1041.12 41.5896C1040.13 42.1303 1040.87 47.4771 1042.23 49.7601C1060.87 80.099 1067.29 114.163 1072.16 148.287C1078.64 194.246 1077.96 240.685 1078.09 286.945C1078.15 313.559 1077.65 340.233 1078.33 366.847C1078.77 384.27 1080.68 401.632 1082.28 418.994C1082.59 422.239 1083.46 425.363 1084.38 428.487C1084.63 429.268 1085.12 432.452 1086.11 433.894L1086.05 433.954Z" fill="url(#paint0_linear_159_23)"/>
<defs>
<linearGradient id="paint0_linear_159_23" x1="0.00441205" y1="264.296" x2="1188.01" y2="264.296" gradientUnits="userSpaceOnUse">
<stop stop-color="#FF7FE6"/>
<stop offset="0.33" stop-color="#977DFF"/>
<stop offset="0.66" stop-color="#2E56FF"/>
<stop offset="1" stop-color="#0624ED"/>
</linearGradient>
</defs>
</svg>
